<svg width="42" height="25" viewBox="0 0 42 25" fill="none" xmlns="http://www.w3.org/2000/svg">
<path d="M1.14256 6.65934C-0.380854 5.13592 -0.380854 2.66598 1.14256 1.14256C2.66598 -0.380853 5.13592 -0.380854 6.65934 1.14256L23.2097 17.6929C24.7331 19.2163 24.7331 21.6862 23.2097 23.2097C21.6862 24.7331 19.2163 24.7331 17.6929 23.2097L1.14256 6.65934Z" fill="white"/>
<path d="M40.0357 6.65934C41.5591 5.13592 41.5591 2.66598 40.0357 1.14256C38.5123 -0.380853 36.0423 -0.380854 34.5189 1.14256L17.9686 17.6929C16.4452 19.2163 16.4452 21.6862 17.9686 23.2097C19.492 24.7331 21.962 24.7331 23.4854 23.2097L40.0357 6.65934Z" fill="white"/>
</svg>
